<svg width="20" height="20" viewBox="0 0 20 20" fill="none" xmlns="http://www.w3.org/2000/svg">
<path d="M19.7093 8.06077H18.9117V8.01967H10.0002V11.9803H15.5961C14.7797 14.2859 12.586 15.941 10.0002 15.941C6.71934 15.941 4.05928 13.2809 4.05928 10C4.05928 6.7191 6.71934 4.05903 10.0002 4.05903C11.5147 4.05903 12.8925 4.63035 13.9416 5.56358L16.7422 2.76291C14.9738 1.11479 12.6083 0.0983887 10.0002 0.0983887C4.53208 0.0983887 0.0986328 4.53183 0.0986328 10C0.0986328 15.4682 4.53208 19.9016 10.0002 19.9016C15.4684 19.9016 19.9018 15.4682 19.9018 10C19.9018 9.33609 19.8335 8.68803 19.7093 8.06077Z" fill="#FFC107"/>
<path d="M1.24023 5.46991L4.49341 7.8557C5.37366 5.67635 7.50548 4.13764 10.0002 4.13764C11.5146 4.13764 12.8924 4.70897 13.9415 5.64219L16.7422 2.84152C14.9738 1.1934 12.6083 0.177002 10.0002 0.177002C6.19698 0.177002 2.89875 2.32417 1.24023 5.46991Z" fill="#FF3D00"/>
<path d="M10.0005 19.9016C12.558 19.9016 14.8819 18.9229 16.639 17.3312L13.5744 14.7379C12.5469 15.5194 11.2914 15.942 10.0005 15.941C7.42504 15.941 5.23827 14.2988 4.41446 12.0071L1.18555 14.4949C2.82426 17.7015 6.15219 19.9016 10.0005 19.9016Z" fill="#4CAF50"/>
<path d="M19.709 8.13997H18.9114V8.09888H10V12.0595H15.5959C15.2054 13.1568 14.5019 14.1157 13.5725 14.8176L13.574 14.8166L16.6385 17.4099C16.4217 17.6069 19.9016 15.03 19.9016 10.0792C19.9016 9.4153 19.8333 8.76724 19.709 8.13997Z" fill="#1976D2"/>
</svg>
